<?xml version="1.0" standalone="no"?>
<!DOCTYPE svg PUBLIC "-//W3C//DTD SVG 20010904//EN"
 "http://www.w3.org/TR/2001/REC-SVG-20010904/DTD/svg10.dtd">
<svg version="1.0" xmlns="http://www.w3.org/2000/svg"
 width="205.000000pt" height="246.000000pt" viewBox="0 0 205.000000 246.000000"
 preserveAspectRatio="xMidYMid meet">

<g transform="translate(0.000000,246.000000) scale(0.100000,-0.100000)"
fill="#ffffff" stroke="none">
<path d="M1038 1778 c-47 -40 -85 -75 -83 -77 2 -1 25 4 52 12 132 43 309 63
417 48 254 -36 314 -185 182 -455 -56 -114 -187 -343 -344 -600 -67 -109 -122
-204 -122 -210 1 -17 124 -229 135 -233 18 -5 195 308 325 572 247 505 264
786 57 905 -74 42 -163 59 -352 67 -151 6 -165 8 -165 25 0 10 -3 18 -8 18 -4
0 -46 -33 -94 -72z"/>
<path d="M270 1794 c0 -21 5 -24 38 -24 125 0 205 -63 287 -226 27 -54 89
-173 136 -264 47 -91 150 -291 228 -445 79 -154 144 -282 146 -283 5 -5 128
180 128 193 0 11 -47 107 -160 325 -153 295 -292 576 -294 595 -8 59 39 92
145 102 45 4 71 12 82 24 17 18 8 19 -322 20 -186 1 -356 3 -376 4 -34 2 -38
0 -38 -21z"/>
<path d="M926 1483 c-6 -15 108 -259 167 -355 27 -45 54 -34 115 47 56 75 155
217 186 266 36 58 31 59 -228 59 -212 0 -234 -2 -240 -17z"/>
</g>
</svg>
